<?xml version="1.0" encoding="UTF-8" standalone="no"?>
<!-- Created with Inkscape (http://www.inkscape.org/) -->
<svg xmlns:inkscape="http://www.inkscape.org/namespaces/inkscape" xmlns:rdf="http://www.w3.org/1999/02/22-rdf-syntax-ns#" xmlns="http://www.w3.org/2000/svg" xmlns:cc="http://creativecommons.org/ns#" xmlns:xlink="http://www.w3.org/1999/xlink" xmlns:dc="http://purl.org/dc/elements/1.1/" xmlns:svg="http://www.w3.org/2000/svg" xmlns:sodipodi="http://sodipodi.sourceforge.net/DTD/sodipodi-0.dtd" xmlns:ns1="http://sozi.baierouge.fr" id="svg2" viewBox="0 0 461.35 598.22" version="1.1" inkscape:version="0.91 r13725">
  <defs id="defs4">
    <filter id="filter3956" height="1.0976" width="1.6033" color-interpolation-filters="sRGB" y="-.048793" x="-.30167">
      <feGaussianBlur id="feGaussianBlur3958" stdDeviation="5.837964"/>
    </filter>
    <linearGradient id="linearGradient3967" y2="484.47" gradientUnits="userSpaceOnUse" x2="315.32" y1="469.51" x1="228.57">
      <stop id="stop3926" style="stop-color:#ff0202" offset="0"/>
      <stop id="stop3930" style="stop-color:#c30000" offset=".18369"/>
      <stop id="stop3928" style="stop-color:#fa0000" offset="1"/>
    </linearGradient>
    <linearGradient id="linearGradient3969" y2="486.65" gradientUnits="userSpaceOnUse" x2="178.57" y1="490.93" x1="210">
      <stop id="stop3912" style="stop-color:#8d0000" offset="0"/>
      <stop id="stop3914" style="stop-color:#fa0000" offset="1"/>
    </linearGradient>
  </defs>
  <g id="layer1" transform="translate(-78.351 -279.85)">
    <g id="g3960">
      <path id="path3886" style="fill:#ff0505" d="m98.571 585.22c151.85 18.09 75.329 69.87 101.43 78.57 40.995 13.665 203.67 68.165 242.86 48.571 17.09-8.54 50.26-117.92 57.14-138.57 106.36-319.09-46.03-222.84-252.86-212.86-18.72 0.91 73.08-75.96-147.14-78.57 9.58 191.62-8.391 385.76-21.429 595.72"/>
      <path id="path3920" style="fill:url(#linearGradient3967)" d="m196 661.79c40.995 13.665 207.67 70.165 246.86 50.571 17.09-8.54 50.26-117.92 57.14-138.57 106.36-319.09-48.03-222.84-254.86-212.86z"/>
      <path id="path3908" style="fill:url(#linearGradient3969)" d="m98.571 585.22c151.85 18.09 73.329 59.87 99.429 68.57l49.14-292.86c-18.72 0.91 73.08-75.96-147.14-78.57 9.58 191.62-8.391 385.76-21.429 595.72"/>
      <path id="path3090" style="fill-rule:evenodd;color:#000000;fill:#323232" d="m98.571 585.22c0.0164-0.13768 1.0716-0.15287 3.1263-0.035 2.0547 0.11793 5.1095 0.3674 9.1198 0.80074s8.977 1.0477 14.84 1.9709c5.8628 0.92318 12.623 2.1515 20.187 3.9381 4.4949 1.0591 9.2974 2.309 14.319 3.9337 5.0212 1.6247 10.262 3.6227 15.573 6.2801 2.8657 1.4251 5.7769 3.0756 8.5843 5.0649 2.8073 1.9894 5.5111 4.3175 7.9171 7.1242 3.1152 3.6577 5.5152 8.1894 6.5492 13.281 0.81507 4.1531 0.74405 8.4532 0.16649 12.653-0.49034 3.6291-1.3149 7.1439-1.8986 10.612-0.23462 1.4225-0.43089 2.7934-0.45605 4.1053-0.008 1.0992 0.0468 2.1077 0.33282 2.9249 0.00001 0.00001 0.00001 0.00002 0.00001 0.00003 0.23086 0.7086 0.63304 1.3712 1.1548 1.8365 0.63779 0.63625 1.6404 1.0827 2.78 1.4817 15.489 5.0217 32.09 10.348 49.793 15.722 22.372 6.7909 46.487 13.747 72.328 20.169 12.082 3.0025 24.534 5.8834 37.368 8.4325 11.15 2.2136 22.566 4.1988 34.255 5.5482 9.2839 1.0647 18.678 1.813 28.066 1.3584 3.6218-0.17691 7.1934-0.51991 10.64-1.233 0.00001-0.00001 0.00003-0.00001 0.00005-0.00001 2.7719-0.58659 5.4083-1.334 7.6964-2.5131 0.61268-0.24687 1.3009-0.97094 2.1918-1.8649l0.00003-0.00003c1.1519-1.2391 2.2039-2.7139 3.265-4.31 2.9022-4.3897 5.3479-9.2532 7.7478-14.308 6.3086-13.329 11.669-27.495 16.933-42.071 5.2285-14.49 10.218-29.373 15.141-44.567 1.8878-5.827 3.7635-11.703 5.6462-17.621 1.2163-3.8237 2.4306-7.6952 3.7187-11.591 5.3224-16.104 10.519-32.524 15.269-49.289 4.7494-16.766 9.0514-33.878 12.537-51.377 2.4472-12.287 4.4705-24.731 5.598-37.316 0.87632-9.8296 1.2385-19.708 0.51636-29.5-0.57177-7.6442-1.7534-15.202-4.1015-22.32-1.9071-5.7734-4.5509-11.273-8.1392-15.987-3.2319-4.2802-7.29-7.9905-11.868-10.909-4.7606-3.0519-10.162-5.2806-15.821-6.9185-0.00002-0.00001-0.00004-0.00001-0.00007-0.00002-6.3496-1.8317-13.03-2.8693-19.845-3.4723-7.7398-0.6788-15.616-0.74963-23.567-0.50965-18.706 0.56581-37.606 2.8335-56.724 5.3236-5.1817 0.67649-10.375 1.3752-15.58 2.085-17.259 2.3535-34.433 4.7963-51.561 6.9286-25.147 3.1319-50.163 5.6192-74.989 6.8007-0.76286 0.0861-1.8283-0.005-3.1557-0.35798-1.0958-0.28162-2.2131-1.015-3.2727-2.2081-0.88737-1.2541-1.3456-2.4012-1.4129-3.3726-0.12221-1.1374-0.0883-2.0488 0.0382-2.7179 0.2989-1.8625 0.78458-3.3801 1.2272-4.5893 0.59356-1.7214 1.2091-3.3398 1.7608-4.8864 1.3536-3.8476 2.5075-7.5814 2.9697-11.234 0-0.00002 0.00001-0.00004 0.00001-0.00006 0.51933-4.124 0.29137-8.2772-1.0352-11.899-1.5672-4.653-5.0599-8.7781-9.1856-12.199l-0.00005-0.00005c-6.6349-5.46-14.973-8.9918-23.592-11.934-14.064-4.7312-28.799-7.294-43.544-9.1955-22.101-3.7921-44.151-5.6084-65.873-6.7046 3.0894 53.655 3.8137 104.96 3.342 153.31-0.47166 48.352-2.137 93.751-4.1758 135.63v0.00005c-2.5652 46.83-5.4854 89.262-8.1936 126.59-2.7082 37.323-5.2133 69.538-7.2976 95.907-2.0843 26.37-3.7597 46.894-4.9969 60.822-1.2371 13.928-2.0463 21.258-2.4135 21.235-0.36723-0.0228-0.27411-7.3981 0.2738-21.372s1.5609-34.547 3.0174-60.961 3.3685-58.669 5.5254-96.015c2.1569-37.345 4.5677-79.78 6.6723-126.57 0.000001-0.00002 0.000001-0.00004 0.000002-0.00006 2.1658-42.41 4.138-88.443 5.0835-137.49 0.94557-49.047 0.86225-101.11-1.4506-155.53 23.419-0.56076 47.406-0.44591 71.69 1.6215 15.058 1.8634 30.409 4.52 45.42 9.4898 9.19 3.0001 18.548 7.0613 26.675 13.547 0.00002 0.00002 0.00004 0.00003 0.00006 0.00005 5.2521 4.168 9.7802 9.7249 12.288 16.516 1.8826 5.3908 2.2846 11.075 1.5479 16.486-0.00001 0.00003-0.00001 0.00006-0.00001 0.00008-0.63959 4.7109-1.9486 9.1223-3.4349 13.259-0.59565 1.6789-1.1968 3.2646-1.7172 4.787-0.38451 1.1993-0.7227 2.1133-0.78415 2.775-0.00007 0.21718-0.0314 0.20927-0.0306-0.041 0.0289-0.27724-0.20043-0.73416-0.6508-1.44-0.62031-0.64198-1.1023-1.0035-1.525-1.0754-0.39975-0.0644-0.47591-0.12023-0.26777-0.081 24.483-1.1978 49.242-3.6894 74.23-6.8133 17.012-2.1276 34.147-4.5705 51.446-6.9293 5.2175-0.71143 10.43-1.4122 15.638-2.0912 19.184-2.507 38.421-4.7915 57.716-5.3736 8.2159-0.24834 16.484-0.15808 24.738 0.56712 7.2677 0.63331 14.574 1.7969 21.718 3.8475 0.00002 0.00001 0.00005 0.00002 0.00008 0.00003 6.3943 1.8301 12.657 4.4593 18.401 8.114 5.5484 3.5465 10.454 8.0573 14.415 13.305 4.3335 5.7809 7.4638 12.244 9.6065 18.88 2.6275 8.1278 3.9426 16.466 4.5079 24.668 0.73403 10.501 0.34008 20.903-0.60913 31.08-1.2108 13.04-3.3219 25.817-5.861 38.324-3.6122 17.793-8.0354 35.133-12.902 52.064-4.8662 16.931-10.175 33.455-15.606 49.61-1.277 3.7997-2.4996 7.6333-3.7427 11.475-1.9139 5.9142-3.8246 11.796-5.7512 17.638-5.0208 15.226-10.127 30.175-15.489 44.76-5.3729 14.627-10.937 29.02-17.524 42.716-2.4809 5.1736-5.1595 10.366-8.4332 15.276-1.1888 1.7919-2.5306 3.6104-4.1292 5.336l-0.00005 0.00005c-1.0962 1.2479-2.5827 2.5554-4.5725 3.6098-3.2277 1.5788-6.5524 2.5367-9.7734 3.154-0.00002 0-0.00004 0.00001-0.00006 0.00001-4.0151 0.78576-8.0038 1.1492-11.9 1.2976-10.069 0.38744-19.878-0.45716-29.351-1.6427-11.971-1.4891-23.571-3.6106-34.824-5.9581-12.962-2.7026-25.497-5.7341-37.627-8.8855-25.941-6.7394-50.078-14.014-72.424-21.127-17.693-5.632-34.247-11.216-49.668-16.497-1.6358-0.52608-3.3044-1.4041-4.7642-2.753-1.2205-1.1836-2.0824-2.6334-2.5488-4.1928-0.00001-0.00002-0.00001-0.00003-0.00002-0.00005-0.47083-1.6443-0.5779-3.2302-0.5-4.6739 0.0766-1.7131 0.32493-3.3238 0.61227-4.8382 0.68714-3.6827 1.5629-7.1096 2.0629-10.41 0.57078-3.8344 0.73788-7.5814 0.0968-11.048-0.74363-4.2105-2.7132-8.1008-5.309-11.301-2.0305-2.5205-4.4209-4.6596-6.9655-6.5363s-5.2436-3.4907-7.9371-4.9369c-5.0093-2.673-10.027-4.7327-14.876-6.4484-4.8497-1.7157-9.5327-3.086-13.939-4.2817-7.4086-2.0064-14.058-3.4709-19.835-4.6398-5.7767-1.1689-10.682-2.0384-14.641-2.7323-3.9594-0.69391-6.9744-1.2094-8.993-1.5966-2.0185-0.38728-3.0413-0.64488-3.0249-0.78256z"/>
      <path id="path3094" style="fill-rule:evenodd;color:#000000;filter:url(#filter3956);fill:#323232" d="m240 365.22c0.65977 0.16839 0.282 4.1642-0.79025 11.265-1.0723 7.1011-2.8142 17.313-4.7967 29.965s-4.1907 27.749-6.4153 44.59-4.4664 35.427-6.8416 54.976c-0.12647 1.0434-0.25357 2.0896-0.38135 3.1384-2.4274 19.925-4.8872 38.93-7.4517 56.183-2.5645 17.252-5.2347 32.749-7.8152 45.701s-5.0593 23.359-7.0558 30.486c-1.9966 7.1275-3.4909 10.979-4.1664 10.839-0.67551-0.14065-0.4693-4.2567 0.34789-11.582s2.2253-17.863 3.8998-30.885 3.6039-28.531 5.6555-45.78 4.2272-36.241 6.6588-56.171c0.12799-1.0491 0.25612-2.0956 0.38439-3.1394 2.4004-19.58 4.9518-38.224 7.7078-55.103s5.7164-31.99 8.6059-44.577c2.8895-12.588 5.6926-22.654 7.925-29.524 2.2324-6.8699 3.8695-10.549 4.5292-10.381z"/>
    </g>
  </g>
  <metadata>
    <rdf:RDF>
      <cc:Work>
        <dc:format>image/svg+xml</dc:format>
        <dc:type rdf:resource="http://purl.org/dc/dcmitype/StillImage"/>
        <cc:license rdf:resource="http://creativecommons.org/licenses/publicdomain/"/>
        <dc:publisher>
          <cc:Agent rdf:about="http://openclipart.org/">
            <dc:title>Openclipart</dc:title>
          </cc:Agent>
        </dc:publisher>
        <dc:title>Red Flag</dc:title>
        <dc:date>2012-09-15T18:49:16</dc:date>
        <dc:description>Simple sketched flag</dc:description>
        <dc:source>https://openclipart.org/detail/172356/red-flag-by-mi_brami-172356</dc:source>
        <dc:creator>
          <cc:Agent>
            <dc:title>mi_brami</dc:title>
          </cc:Agent>
        </dc:creator>
        <dc:subject>
          <rdf:Bag>
            <rdf:li>Flag</rdf:li>
            <rdf:li>Ideal</rdf:li>
            <rdf:li>Red</rdf:li>
            <rdf:li>Signal</rdf:li>
            <rdf:li>Symbol</rdf:li>
            <rdf:li>Warning</rdf:li>
          </rdf:Bag>
        </dc:subject>
      </cc:Work>
      <cc:License rdf:about="http://creativecommons.org/licenses/publicdomain/">
        <cc:permits rdf:resource="http://creativecommons.org/ns#Reproduction"/>
        <cc:permits rdf:resource="http://creativecommons.org/ns#Distribution"/>
        <cc:permits rdf:resource="http://creativecommons.org/ns#DerivativeWorks"/>
      </cc:License>
    </rdf:RDF>
  </metadata>
</svg>
