<svg xmlns="http://www.w3.org/2000/svg" viewBox="0 0 512 512" style="height: 512px; width: 512px;"><defs><linearGradient x1="0" x2="0" y1="0" y2="1" id="gradient-0"><stop offset="0%" stop-color="#ffe0af" stop-opacity="1"></stop><stop offset="100%" stop-color="#000" stop-opacity="1"></stop></linearGradient><linearGradient x1="0" x2="1" y1="1" y2="0" id="gradient-2"><stop offset="0%" stop-color="#4a4a4a" stop-opacity="1"></stop><stop offset="100%" stop-color="#48ffba" stop-opacity="1"></stop></linearGradient></defs><polygon points="319.48,343.37,256,426.67,192.52,343.37,93.69,308.74,153.29,222.63,155.68,117.93,256,148,356.32,117.93,358.71,222.63,418.31,308.74" fill="url(#gradient-0)" stroke="#002c44" stroke-opacity="1" stroke-width="148"></polygon><g class="" transform="translate(0,0)" style="touch-action: none;"><g transform="translate(51.2, 51.2) scale(0.8, 0.8) rotate(360, 256, 256)"><path d="M237.13 18.283C185.382 18.283 137.947 45.863 101.063 91.678C113.009 84.708 125.589 79.775 138.573 76.918C147.525 74.948 156.635 73.958 165.823 73.918C193.385 73.795 221.647 82.201 248.459 98.236C319.287 140.598 381.044 235.686 402.163 373.414L352.723 386.051L427.053 495.791L501.38 348.058L449.54 361.308C450.104 352.774 450.44 344.148 450.44 335.403C450.44 160.315 354.593 18.283 237.133 18.283L237.131 18.283Z" class="selected" fill="url(#gradient-2)"></path><path d="M165.965 92.588C158.041 92.628 150.231 93.488 142.59 95.17C112.12 101.875 83.805 121.65 61.234 157.06C37.996 207.88 24.4 269.28 24.4 335.4C24.4 351.383 25.75 366.778 27.283 382.13C41.67 247.027 119.985 143.51 214.646 143.51C249.359 143.51 281.823 157.486 309.729 181.844C288.121 151.876 263.814 129.194 238.866 114.274C214.529 99.718 189.736 92.464 165.964 92.586Z" class="" fill="#9c1589" fill-opacity="1"></path></g></g></svg>